<svg width="368" height="736" viewBox="0 0 368 736" fill="none" xmlns="http://www.w3.org/2000/svg">
<g clip-path="url(#clip0_1992_5276)">
<path d="M0 183.989H183.989V0.000333332H0V183.989Z" fill="#F04E37"/>
<path d="M188.159 189.847V0.139524C186.75 0.0639914 185.342 0.00177884 183.92 0.00177884C134.597 0.00177884 94.3515 38.8167 92.0366 87.5576H91.9566C89.6373 38.8167 49.3917 0.00177884 0.0732794 0.00177884C-1.42849 0.00177884 -2.91693 0.0595337 -4.39648 0.135066V189.847H82.1552V129.083H101.834V189.847H188.159Z" fill="#B22D1B"/>
<path d="M184.01 183.989H367.999V0.000333332H184.01V183.989Z" fill="#FDBA11"/>
<path d="M398.49 82.8052C390.871 76.0695 382.255 69.5381 373.125 62.6424C348.941 44.3368 322.011 23.8319 316.573 0.0168867H315.596H314.622C309.184 23.8319 282.25 44.3368 258.066 62.6424C248.94 69.5381 240.325 76.0695 232.705 82.8052C187.154 123.086 183.933 171.139 184.057 185.396H237.148C237.121 184.526 237.081 183.659 237.081 182.784C237.081 139.481 272.186 104.376 315.489 104.376C358.796 104.376 393.896 139.481 393.896 182.784C393.896 183.659 393.861 184.526 393.83 185.396H447.134C447.262 171.139 444.041 123.086 398.49 82.8052Z" fill="white"/>
<path d="M184.01 368.001H367.999V184.012H184.01V368.001Z" fill="#B22D1B"/>
<path d="M131.385 184.008C131.527 285.626 213.933 367.965 315.578 367.965C417.218 367.965 499.629 285.626 499.771 184.008H465.577C465.435 266.743 398.335 333.767 315.578 333.767C232.821 333.767 165.721 266.743 165.579 184.008H131.385Z" fill="#F04E37"/>
<path d="M184.118 184.007C184.26 256.501 243.06 315.221 315.576 315.221C388.097 315.221 446.897 256.501 447.039 184.007H412.765C412.623 237.569 369.169 280.947 315.576 280.947C261.988 280.947 218.534 237.569 218.392 184.007H184.118Z" fill="#F04E37"/>
<path d="M237.062 184.007C237.205 227.252 272.301 262.268 315.577 262.268C358.857 262.268 393.948 227.252 394.095 184.007H359.634C359.492 208.227 339.831 227.816 315.577 227.816C291.326 227.816 271.665 208.227 271.519 184.007H237.062Z" fill="#F04E37"/>
<path d="M289.924 184.007C290.066 198.06 301.49 209.413 315.579 209.413C329.668 209.413 341.091 198.06 341.233 184.007H289.924Z" fill="#F04E37"/>
<path d="M0 368.001H183.989V184.012H0V368.001Z" fill="#024492"/>
<path d="M122.574 368.06H37.2933V368.055H122.521C122.539 368.055 122.556 368.06 122.574 368.06C147.967 368.06 168.556 347.47 168.556 322.078C168.556 296.686 147.967 276.096 122.574 276.096C122.556 276.096 61.4904 276.096 61.4904 276.096C61.4727 276.096 61.4593 276.101 61.4371 276.101C36.0448 276.101 15.4555 255.449 15.4555 230.052C15.4555 204.656 36.0448 184.071 61.4371 184.071H0.0112305V368.06M61.4904 184.071H61.4371C61.4593 184.071 61.4727 184.075 61.4904 184.075V184.071Z" fill="#4C82C3"/>
<path d="M0 736H368V368H0V736Z" fill="white"/>
<path d="M34.9277 697.949H37.7091V688.934H48.2881V697.949H51.0695V678.675H48.2881V686.641H37.7091V678.675H34.9277V697.949ZM69.7839 678.15C66.3494 678.15 63.7546 679.341 62.004 681.727C60.6355 683.575 59.9557 685.806 59.9557 688.405C59.9557 691.298 60.7511 693.688 62.3506 695.572C64.1411 697.536 66.6026 698.513 69.7306 698.513C73.0807 698.513 75.6577 697.398 77.4704 695.159C79.0122 693.257 79.7809 690.862 79.7809 687.979C79.7809 685.322 79.1055 683.14 77.7593 681.434C76.0353 679.248 73.3783 678.15 69.7839 678.15ZM75.3289 693.71C74.2448 695.359 72.4897 696.181 70.0594 696.181C67.5046 696.181 65.6562 695.447 64.5144 693.986C63.3769 692.524 62.8038 690.724 62.8038 688.587C62.8038 685.917 63.4702 683.9 64.8032 682.531C66.1316 681.167 67.8467 680.483 69.9527 680.483C72.121 680.483 73.8271 681.172 75.0801 682.554C76.333 683.935 76.9595 685.757 76.9595 688.023C76.9595 690.165 76.413 692.062 75.3289 693.71ZM88.2272 691.737C88.2005 693.817 88.9026 695.461 90.3332 696.678C91.7639 697.904 93.7411 698.513 96.2737 698.513C98.4419 698.513 100.344 698.056 101.983 697.136C103.623 696.212 104.44 694.688 104.44 692.559C104.44 690.836 103.796 689.529 102.503 688.636C101.756 688.112 100.695 687.699 99.3172 687.405L96.4647 686.797C94.5453 686.375 93.3146 686.024 92.7681 685.748C91.9372 685.304 91.524 684.611 91.524 683.66C91.524 682.807 91.8794 682.056 92.5903 681.412C93.3012 680.763 94.4698 680.439 96.0915 680.439C98.1042 680.439 99.5305 680.941 100.37 681.945C100.823 682.5 101.117 683.291 101.254 684.322H103.845C103.845 682.176 103.098 680.616 101.61 679.648C100.117 678.679 98.3086 678.19 96.1759 678.19C93.8566 678.19 92.066 678.75 90.8042 679.861C89.5379 680.976 88.907 682.398 88.907 684.126C88.907 685.73 89.5512 686.93 90.8442 687.73C91.5906 688.192 92.8658 688.614 94.6653 689L97.42 689.596C98.9173 689.916 100.015 690.298 100.717 690.742C101.41 691.182 101.756 691.929 101.756 692.977C101.756 694.377 100.934 695.35 99.2905 695.892C98.4419 696.167 97.5 696.305 96.4647 696.305C94.1587 696.305 92.5503 695.67 91.6351 694.399C91.1552 693.71 90.8797 692.822 90.8175 691.737H88.2272ZM112.18 678.675V680.981H119.036V697.949H121.835V680.981H128.686V678.675H112.18ZM137.421 697.949H152.461V695.656H140.109V689.125H151.337V686.872H140.109V681.034H152.252V678.675H137.421V697.949ZM164.92 695.723V680.923H169.807C172.033 680.923 173.646 681.585 174.646 682.905C175.65 684.229 176.147 686.081 176.147 688.463C176.147 689.089 176.081 689.76 175.943 690.48C175.699 691.702 175.308 692.702 174.766 693.475C174.081 694.448 173.206 695.11 172.135 695.447C171.535 695.634 170.767 695.723 169.838 695.723H164.92ZM162.152 697.949H170.362C173.855 697.949 176.312 696.487 177.742 693.572C178.555 691.915 178.96 690.067 178.96 688.023C178.96 685.37 178.271 683.198 176.898 681.505C175.356 679.617 173.188 678.675 170.389 678.675H162.152V697.949ZM200.105 686.832V680.856H205.019C206.218 680.856 207.12 680.981 207.733 681.23C208.809 681.665 209.351 682.514 209.351 683.775C209.351 685.028 208.844 685.899 207.827 686.379C207.182 686.681 206.276 686.832 205.116 686.832H200.105ZM200.105 695.723V688.934H205.574C206.725 688.934 207.653 689.072 208.355 689.347C209.675 689.854 210.337 690.804 210.337 692.204C210.337 693.035 210.106 693.741 209.657 694.332C208.937 695.261 207.733 695.723 206.041 695.723H200.105ZM197.403 697.949H206.001C208.675 697.949 210.63 697.198 211.857 695.701C212.679 694.688 213.092 693.559 213.092 692.319C213.092 690.849 212.63 689.694 211.719 688.858C211.203 688.378 210.421 687.956 209.377 687.588C210.088 687.245 210.635 686.872 211.012 686.455C211.741 685.673 212.105 684.673 212.105 683.456C212.105 682.416 211.812 681.496 211.221 680.705C210.213 679.35 208.52 678.675 206.138 678.675H197.403V697.949ZM225.044 690.187V697.949H227.798V690.187L235.481 678.675H232.255L226.412 687.939L220.569 678.675H217.357L225.044 690.187ZM252.533 697.949H255.163V686.57C255.163 686.121 255.15 685.41 255.128 684.446C255.106 683.478 255.092 682.762 255.092 682.291V681.696L260.935 697.949H263.663L269.466 681.696C269.466 682.736 269.457 683.713 269.439 684.624C269.417 685.535 269.408 686.188 269.408 686.57V697.949H272.025V678.675H268.12L262.321 694.968L256.479 678.675H252.533V697.949ZM282.231 697.949H285.012V678.675H282.231V697.949ZM295.702 697.949H298.462V689.805H304.855C306.903 689.805 308.423 689.245 309.414 688.13C310.4 687.019 310.893 685.708 310.893 684.198C310.893 682.447 310.338 681.092 309.232 680.123C308.125 679.155 306.663 678.675 304.855 678.675H295.702V697.949ZM308.112 684.211C308.112 685.473 307.725 686.352 306.952 686.846C306.184 687.343 305.179 687.592 303.944 687.592H298.462V680.923H303.944C305.002 680.923 305.842 681.056 306.45 681.323C307.557 681.829 308.112 682.793 308.112 684.211M316.336 678.675V680.981H323.192V697.949H325.987V680.981H332.842V678.675H316.336Z" fill="#024492"/>
<path d="M40.8565 552.46L44.7931 578.79H44.8953L49.0851 552.46H55.9675L60.1573 578.79H60.2551L64.1917 552.46H71.074L64.5915 588.062H56.5629L52.5774 562.235H52.4752L48.4853 588.062H40.4566L33.9741 552.46H40.8565ZM80.5734 576.368C80.6889 578.048 80.9244 579.412 81.2709 580.46C81.622 581.509 82.1196 582.273 82.7683 582.753C83.417 583.237 84.27 583.473 85.3364 583.473C86.3983 583.473 87.2558 583.237 87.9045 582.753C88.5532 582.273 89.0508 581.509 89.4018 580.46C89.7484 579.412 89.9794 578.048 90.0994 576.368C90.2149 574.689 90.2727 572.658 90.2727 570.263C90.2727 567.868 90.2149 565.842 90.0994 564.176C89.9794 562.514 89.7484 561.155 89.4018 560.089C89.0508 559.027 88.5532 558.254 87.9045 557.769C87.2558 557.289 86.3983 557.049 85.3364 557.049C84.27 557.049 83.417 557.289 82.7683 557.769C82.1196 558.254 81.622 559.027 81.2709 560.089C80.9244 561.155 80.6889 562.514 80.5734 564.176C80.4579 565.842 80.4001 567.868 80.4001 570.263C80.4001 572.658 80.4579 574.689 80.5734 576.368ZM73.5933 562.808C73.8421 560.528 74.3886 558.573 75.2417 556.947C76.0859 555.317 77.3077 554.046 78.9028 553.131C80.4978 552.22 82.6439 551.762 85.3364 551.762C88.0289 551.762 90.1749 552.22 91.77 553.131C93.3651 554.046 94.5869 555.317 95.4356 556.947C96.2798 558.573 96.8307 560.528 97.0795 562.808C97.3283 565.083 97.4527 567.571 97.4527 570.263C97.4527 572.987 97.3283 575.479 97.0795 577.741C96.8307 580.003 96.2798 581.949 95.4356 583.575C94.5869 585.205 93.3651 586.449 91.77 587.316C90.1749 588.182 88.0289 588.613 85.3364 588.613C82.6439 588.613 80.4978 588.182 78.9028 587.316C77.3077 586.449 76.0859 585.205 75.2417 583.575C74.3886 581.949 73.8421 580.003 73.5933 577.741C73.3445 575.479 73.22 572.987 73.22 570.263C73.22 567.571 73.3445 565.083 73.5933 562.808M114.954 552.46C117.949 552.46 120.277 553.215 121.939 554.73C123.6 556.241 124.431 558.542 124.431 561.635C124.431 564.03 123.951 565.98 122.983 567.491C122.019 569.006 120.526 569.979 118.495 570.41V570.512C120.29 570.779 121.605 571.356 122.436 572.254C123.267 573.156 123.783 574.6 123.982 576.595C124.049 577.261 124.098 577.981 124.129 578.763C124.165 579.545 124.2 580.416 124.231 581.384C124.298 583.277 124.396 584.721 124.533 585.721C124.729 586.716 125.16 587.4 125.826 587.765V588.062H118.047C117.682 587.565 117.447 586.992 117.349 586.343C117.251 585.694 117.185 585.023 117.149 584.326L116.954 577.492C116.887 576.097 116.536 575 115.905 574.2C115.27 573.4 114.208 573.005 112.71 573.005H108.872V588.062H101.691V552.46H114.954ZM111.866 568.019C113.595 568.019 114.923 567.611 115.852 566.798C116.785 565.98 117.251 564.612 117.251 562.683C117.251 559.391 115.585 557.743 112.262 557.743H108.872V568.019H111.866ZM129.416 552.46H136.596V582.18H149.313V588.062H129.416V552.46ZM163.224 582.779C164.49 582.779 165.503 582.562 166.268 582.131C167.032 581.7 167.64 580.98 168.089 579.985C168.538 578.99 168.836 577.674 168.987 576.048C169.133 574.418 169.209 572.392 169.209 569.961C169.209 567.935 169.142 566.158 169.009 564.625C168.876 563.101 168.605 561.826 168.187 560.813C167.774 559.8 167.156 559.036 166.343 558.516C165.53 558 164.441 557.743 163.077 557.743H160.034V582.779H163.224ZM164.624 552.46C167.116 552.46 169.124 552.869 170.657 553.682C172.186 554.495 173.372 555.659 174.221 557.174C175.069 558.685 175.642 560.506 175.94 562.63C176.242 564.763 176.389 567.135 176.389 569.761C176.389 572.889 176.198 575.604 175.816 577.914C175.434 580.225 174.776 582.131 173.847 583.624C172.919 585.121 171.67 586.236 170.111 586.965C168.547 587.698 166.565 588.062 164.175 588.062H152.854V552.46H164.624ZM212.991 552.46V558.342H200.275V566.722H212.24V572.605H200.275V588.062H193.095V552.46H212.991ZM216.532 552.46H223.712V588.062H216.532V552.46ZM246.003 576.843H246.101V552.46H252.681V588.062H244.506L235.731 563.132H235.629V588.062H229.049V552.46H237.326L246.003 576.843ZM265.549 574.649L268.992 558.64H269.09L272.529 574.649H265.549ZM264.598 552.46L255.178 588.062H262.656L264.3 580.531H273.777L275.421 588.062H282.903L273.475 552.46H264.598ZM285.396 552.46H292.576V582.18H305.292V588.062H285.396V552.46ZM314.267 577.994C314.267 578.825 314.334 579.576 314.467 580.26C314.601 580.94 314.849 581.513 315.214 581.98C315.578 582.446 316.071 582.811 316.684 583.077C317.297 583.344 318.071 583.473 319.004 583.473C320.101 583.473 321.092 583.117 321.972 582.406C322.851 581.691 323.291 580.585 323.291 579.087C323.291 578.288 323.185 577.599 322.967 577.017C322.754 576.439 322.394 575.915 321.896 575.448C321.398 574.982 320.741 574.555 319.928 574.173C319.11 573.791 318.106 573.4 316.911 573.005C315.316 572.471 313.934 571.889 312.77 571.259C311.606 570.628 310.637 569.886 309.851 569.041C309.073 568.193 308.5 567.211 308.131 566.1C307.767 564.985 307.585 563.696 307.585 562.235C307.585 558.707 308.567 556.081 310.526 554.353C312.49 552.624 315.183 551.762 318.604 551.762C320.203 551.762 321.674 551.935 323.016 552.286C324.362 552.633 325.526 553.202 326.508 553.979C327.49 554.761 328.254 555.757 328.801 556.974C329.352 558.187 329.627 559.64 329.627 561.337V562.332H322.745C322.745 560.64 322.443 559.333 321.847 558.418C321.247 557.507 320.252 557.049 318.857 557.049C318.057 557.049 317.391 557.165 316.858 557.396C316.329 557.632 315.902 557.938 315.587 558.316C315.271 558.702 315.058 559.142 314.938 559.64C314.823 560.137 314.765 560.653 314.765 561.186C314.765 562.283 314.996 563.203 315.462 563.954C315.929 564.7 316.924 565.394 318.453 566.025L323.989 568.415C325.353 569.015 326.468 569.637 327.33 570.285C328.196 570.934 328.885 571.632 329.4 572.378C329.916 573.129 330.271 573.951 330.471 574.849C330.671 575.746 330.773 576.746 330.773 577.843C330.773 581.598 329.685 584.33 327.508 586.045C325.326 587.756 322.296 588.613 318.408 588.613C314.352 588.613 311.45 587.729 309.704 585.97C307.958 584.206 307.087 581.682 307.087 578.39V576.946H314.267V577.994Z" fill="#024492"/>
<path d="M52.2636 602.924L60.6478 644.36H60.8122L69.2807 602.924H86.7954V661.626H75.9409V614.765H75.7765L65.3352 661.626H56.1291L45.6878 614.765H45.519V661.626H34.6689V602.924H52.2636ZM106.154 642.348C106.345 645.111 106.727 647.36 107.305 649.088C107.878 650.816 108.704 652.078 109.771 652.869C110.837 653.664 112.25 654.06 114.005 654.06C115.76 654.06 117.168 653.664 118.239 652.869C119.306 652.078 120.128 650.816 120.705 649.088C121.278 647.36 121.665 645.111 121.856 642.348C122.047 639.58 122.145 636.221 122.145 632.275C122.145 628.325 122.047 624.984 121.856 622.243C121.665 619.506 121.278 617.258 120.705 615.503C120.128 613.752 119.306 612.477 118.239 611.681C117.168 610.886 115.76 610.486 114.005 610.486C112.25 610.486 110.837 610.886 109.771 611.681C108.704 612.477 107.878 613.752 107.305 615.503C106.727 617.258 106.345 619.506 106.154 622.243C105.963 624.984 105.865 628.325 105.865 632.275C105.865 636.221 105.963 639.58 106.154 642.348M94.6419 619.986C95.0552 616.231 95.9615 613.01 97.3567 610.322C98.7563 607.638 100.769 605.541 103.399 604.035C106.03 602.529 109.566 601.773 114.005 601.773C118.444 601.773 121.98 602.529 124.611 604.035C127.241 605.541 129.258 607.638 130.653 610.322C132.048 613.01 132.955 616.231 133.364 619.986C133.777 623.736 133.981 627.837 133.981 632.275C133.981 636.767 133.777 640.882 133.364 644.605C132.955 648.333 132.048 651.541 130.653 654.224C129.258 656.912 127.241 658.969 124.611 660.391C121.98 661.817 118.444 662.528 114.005 662.528C109.566 662.528 106.03 661.817 103.399 660.391C100.769 658.969 98.7563 656.912 97.3567 654.224C95.9615 651.541 95.0552 648.333 94.6419 644.605C94.2332 640.882 94.0244 636.767 94.0244 632.275C94.0244 627.837 94.2332 623.736 94.6419 619.986ZM150.51 645.018C150.51 646.387 150.616 647.635 150.838 648.759C151.056 649.883 151.465 650.83 152.069 651.594C152.673 652.363 153.478 652.967 154.495 653.402C155.508 653.842 156.783 654.06 158.316 654.06C160.124 654.06 161.755 653.473 163.208 652.291C164.661 651.114 165.389 649.292 165.389 646.826C165.389 645.511 165.207 644.374 164.856 643.414C164.496 642.454 163.91 641.592 163.088 640.824C162.266 640.06 161.182 639.358 159.84 638.727C158.494 638.1 156.836 637.456 154.864 636.798C152.233 635.919 149.959 634.959 148.044 633.919C146.124 632.879 144.516 631.658 143.232 630.263C141.943 628.863 140.997 627.246 140.397 625.411C139.793 623.576 139.491 621.452 139.491 619.039C139.491 613.228 141.108 608.9 144.343 606.048C147.573 603.2 152.016 601.773 157.658 601.773C160.289 601.773 162.715 602.062 164.936 602.635C167.158 603.213 169.073 604.146 170.69 605.43C172.307 606.719 173.569 608.362 174.471 610.362C175.378 612.366 175.831 614.765 175.831 617.555V619.204H164.483C164.483 616.404 163.99 614.258 163.004 612.748C162.017 611.242 160.373 610.486 158.072 610.486C156.757 610.486 155.659 610.682 154.779 611.064C153.904 611.446 153.206 611.952 152.687 612.583C152.162 613.214 151.807 613.943 151.616 614.765C151.425 615.582 151.327 616.436 151.327 617.311C151.327 619.119 151.714 620.643 152.478 621.874C153.246 623.109 154.89 624.247 157.414 625.286L166.54 629.232C168.784 630.218 170.619 631.244 172.05 632.315C173.471 633.386 174.609 634.537 175.458 635.768C176.311 637.003 176.897 638.358 177.226 639.837C177.555 641.317 177.719 642.961 177.719 644.769C177.719 650.963 175.924 655.473 172.334 658.294C168.744 661.12 163.741 662.528 157.334 662.528C150.643 662.528 145.862 661.075 142.983 658.17C140.108 655.268 138.669 651.101 138.669 645.676V643.294H150.51V645.018ZM207.195 613.405C206.177 611.464 204.329 610.486 201.641 610.486C200.161 610.486 198.944 610.886 197.984 611.681C197.024 612.477 196.273 613.765 195.727 615.543C195.176 617.324 194.794 619.652 194.572 622.532C194.354 625.411 194.243 628.934 194.243 633.097C194.243 637.536 194.394 641.126 194.696 643.867C194.998 646.604 195.46 648.732 196.096 650.239C196.722 651.745 197.518 652.758 198.477 653.278C199.437 653.802 200.548 654.06 201.81 654.06C202.849 654.06 203.822 653.882 204.729 653.527C205.631 653.171 206.413 652.456 207.07 651.389C207.728 650.319 208.248 648.812 208.63 646.866C209.012 644.92 209.207 642.361 209.207 639.18H221.044C221.044 642.361 220.799 645.373 220.306 648.222C219.813 651.074 218.893 653.567 217.551 655.708C216.21 657.841 214.317 659.516 211.878 660.72C209.438 661.924 206.275 662.528 202.383 662.528C197.944 662.528 194.407 661.817 191.777 660.391C189.147 658.969 187.134 656.912 185.734 654.224C184.339 651.541 183.433 648.333 183.024 644.605C182.611 640.882 182.407 636.767 182.407 632.275C182.407 627.837 182.611 623.736 183.024 619.986C183.433 616.231 184.339 613.01 185.734 610.322C187.134 607.638 189.147 605.541 191.777 604.035C194.407 602.529 197.944 601.773 202.383 601.773C206.604 601.773 209.936 602.458 212.371 603.83C214.81 605.199 216.632 606.941 217.84 609.051C219.044 611.162 219.8 613.436 220.102 615.871C220.4 618.311 220.551 620.599 220.551 622.74H208.714C208.714 618.462 208.208 615.351 207.195 613.405ZM238.678 642.348C238.87 645.111 239.256 647.36 239.829 649.088C240.407 650.816 241.229 652.078 242.295 652.869C243.366 653.664 244.774 654.06 246.534 654.06C248.284 654.06 249.697 653.664 250.764 652.869C251.834 652.078 252.656 650.816 253.234 649.088C253.807 647.36 254.189 645.111 254.385 642.348C254.576 639.58 254.669 636.221 254.669 632.275C254.669 628.325 254.576 624.984 254.385 622.243C254.189 619.506 253.807 617.258 253.234 615.503C252.656 613.752 251.834 612.477 250.764 611.681C249.697 610.886 248.284 610.486 246.534 610.486C244.774 610.486 243.366 610.886 242.295 611.681C241.229 612.477 240.407 613.752 239.829 615.503C239.256 617.258 238.87 619.506 238.678 622.243C238.487 624.984 238.394 628.325 238.394 632.275C238.394 636.221 238.487 639.58 238.678 642.348ZM227.171 619.986C227.58 616.231 228.486 613.01 229.881 610.322C231.281 607.638 233.293 605.541 235.924 604.035C238.554 602.529 242.091 601.773 246.534 601.773C250.968 601.773 254.505 602.529 257.135 604.035C259.765 605.541 261.783 607.638 263.178 610.322C264.577 613.01 265.479 616.231 265.892 619.986C266.301 623.736 266.51 627.837 266.51 632.275C266.51 636.767 266.301 640.882 265.892 644.605C265.479 648.333 264.577 651.541 263.178 654.224C261.783 656.912 259.765 658.969 257.135 660.391C254.505 661.817 250.968 662.528 246.534 662.528C242.091 662.528 238.554 661.817 235.924 660.391C233.293 658.969 231.281 656.912 229.881 654.224C228.486 651.541 227.58 648.333 227.171 644.605C226.758 640.882 226.553 636.767 226.553 632.275C226.553 627.837 226.758 623.736 227.171 619.986M281.39 602.924L287.886 646.333H288.05L294.955 602.924H306.298L313.207 646.333H313.371L319.863 602.924H331.211L320.525 661.626H307.289L300.709 619.039H300.544L293.968 661.626H280.732L270.047 602.924H281.39Z" fill="#024492"/>
<path d="M54.4906 405.993H35.0122V499.556H54.4906V405.993ZM68.2289 453.529C68.2289 468.64 72.0454 480.53 79.6876 489.208C87.3297 497.836 97.8242 502.155 111.176 502.155C121.964 502.155 130.81 498.96 137.714 492.567C144.619 486.177 148.911 477.887 150.591 467.69H131.117C129.828 472.51 128.206 476.127 126.26 478.54C122.728 483.027 117.605 485.271 110.878 485.271C104.32 485.271 98.9129 482.658 94.6608 477.429C90.4043 472.204 88.276 464.344 88.276 453.849C88.276 443.355 90.2933 435.242 94.3232 429.506C98.3575 423.774 103.867 420.908 110.851 420.908C117.707 420.908 122.888 422.939 126.376 427C128.331 429.288 129.93 432.674 131.179 437.157H150.782C150.488 431.314 148.351 425.498 144.362 419.7C137.141 409.378 125.718 404.215 110.105 404.215C98.4331 404.215 88.8225 408.063 81.2648 415.763C72.5696 424.609 68.2289 437.201 68.2289 453.529ZM217.926 435.757C217.926 440.627 216.686 444.181 214.203 446.425C211.723 448.669 208.244 449.788 203.77 449.788H186.104V422.241H203.77C208.244 422.241 211.723 423.276 214.203 425.351C216.686 427.426 217.926 430.896 217.926 435.757M237.404 435.633C237.404 425.52 234.645 418.051 229.122 413.226C223.604 408.405 216.197 405.993 206.907 405.993H166.626V499.551H186.104V465.912H205.636C215.829 465.912 223.675 463.624 229.167 459.052C234.659 454.485 237.404 446.678 237.404 435.633ZM249.312 453.529C249.312 468.64 253.133 480.53 260.775 489.208C268.413 497.836 278.908 502.155 292.259 502.155C303.047 502.155 311.893 498.96 318.802 492.567C325.707 486.177 329.999 477.887 331.678 467.69H312.2C310.916 472.51 309.294 476.127 307.343 478.54C303.815 483.027 298.688 485.271 291.966 485.271C285.408 485.271 280.001 482.658 275.748 477.429C271.492 472.204 269.364 464.344 269.364 453.849C269.364 443.355 271.381 435.242 275.411 429.506C279.445 423.774 284.954 420.908 291.939 420.908C298.795 420.908 303.971 422.939 307.463 427C309.414 429.288 311.018 432.674 312.266 437.157H331.869C331.576 431.314 329.434 425.498 325.445 419.7C318.225 409.378 306.806 404.215 291.188 404.215C279.521 404.215 269.906 408.063 262.348 415.763C253.662 424.609 249.312 437.201 249.312 453.529" fill="#024492"/>
</g>
<defs>
<clipPath id="clip0_1992_5276">
<rect width="368" height="736" fill="white"/>
</clipPath>
</defs>
</svg>
