<svg width="1000" height="1000" viewBox="0 0 1000 1000" fill="none" xmlns="http://www.w3.org/2000/svg">
<rect width="1000" height="1000" fill="white"/>
<path d="M541.364 528.411C533.145 519.939 501.765 485.022 501.134 448.972H501.126H501.118C500.483 485.022 469.107 519.939 460.888 528.411C460.303 529.011 460.751 529.99 461.6 529.99L501.126 529.952L540.652 529.99C541.501 529.99 541.945 529.011 541.364 528.411" fill="#BC1E24"/>
<path d="M539.43 95.9123L500.814 50.7717C499.935 49.7429 498.512 49.7429 497.632 50.7717L459.016 95.9123C457.597 97.5684 458.603 100.402 460.607 100.402H479.722C480.965 100.402 481.971 101.576 481.971 103.03V149.26C481.971 150.714 482.981 151.892 484.22 151.892H514.227C515.466 151.892 516.476 150.714 516.476 149.26V103.03C516.476 101.576 517.481 100.402 518.724 100.402H537.839C539.843 100.402 540.845 97.5684 539.43 95.9123" fill="#3872C2"/>
<path d="M498.116 296.723V266.659C498.116 265.68 497.737 264.739 497.068 264.051L481.796 248.297C481.299 247.781 480.443 248.148 480.443 248.879V279.333C480.443 280.343 480.84 281.303 481.544 281.995C484.63 285.047 493.373 293.71 496.754 297.297C497.251 297.821 498.116 297.458 498.116 296.723Z" fill="#F9A80D"/>
<path d="M500.409 296.723V266.659C500.409 265.68 500.784 264.739 501.457 264.051L516.724 248.297C517.225 247.781 518.078 248.148 518.078 248.879V279.333C518.078 280.343 517.684 281.303 516.977 281.995C513.89 285.047 505.148 293.71 501.767 297.297C501.269 297.821 500.409 297.458 500.409 296.723Z" fill="#F9A80D"/>
<path d="M500.409 301.086V331.15C500.409 332.129 500.784 333.07 501.457 333.763L516.724 349.512C517.225 350.028 518.078 349.665 518.078 348.934V318.476C518.078 317.47 517.684 316.51 516.977 315.814C513.89 312.766 505.148 304.1 501.767 300.516C501.269 299.988 500.409 300.356 500.409 301.086" fill="#F9A80D"/>
<path d="M498.116 301.086V331.15C498.116 332.129 497.737 333.07 497.068 333.763L481.796 349.512C481.299 350.028 480.443 349.665 480.443 348.934V318.476C480.443 317.47 480.84 316.51 481.544 315.814C484.63 312.766 493.373 304.1 496.754 300.516C497.251 299.988 498.116 300.356 498.116 301.086" fill="#F9A80D"/>
<path d="M505.874 297.835H532.86C533.736 297.835 534.581 297.499 535.2 296.895L549.34 283.191C549.802 282.744 549.473 281.975 548.819 281.975H521.482C520.579 281.975 519.719 282.331 519.092 282.962C516.353 285.735 508.578 293.583 505.358 296.615C504.887 297.063 505.216 297.835 505.874 297.835" fill="#F9A80D"/>
<path d="M505.874 299.892H532.86C533.736 299.892 534.581 300.233 535.2 300.833L549.34 314.536C549.802 314.984 549.473 315.752 548.819 315.752H521.482C520.579 315.752 519.719 315.397 519.092 314.766C516.353 311.993 508.578 304.149 505.358 301.112C504.887 300.665 505.216 299.892 505.874 299.892" fill="#F9A80D"/>
<path d="M492.57 297.835H465.584C464.709 297.835 463.863 297.499 463.244 296.895L449.105 283.191C448.642 282.744 448.967 281.975 449.625 281.975H476.962C477.865 281.975 478.725 282.331 479.353 282.962C482.091 285.735 489.866 293.583 493.087 296.615C493.557 297.063 493.228 297.835 492.57 297.835" fill="#F9A80D"/>
<path d="M492.57 299.892H465.584C464.709 299.892 463.863 300.233 463.244 300.833L449.105 314.536C448.642 314.984 448.967 315.752 449.625 315.752H476.962C477.865 315.752 478.725 315.397 479.353 314.766C482.091 311.993 489.866 304.149 493.087 301.112C493.557 300.665 493.228 299.892 492.57 299.892" fill="#F9A80D"/>
<path d="M494.764 218.068V173.072H493.173L487.326 194.337H476.17V193.27L483.608 167.228H506.456V218.068H521.865V229.228H477.229V218.068H494.764" fill="#3BBA6B"/>
<path d="M492.491 397.785C492.491 395.643 493.275 393.777 494.859 392.197C496.438 390.625 498.301 389.83 500.442 389.83C502.592 389.83 504.451 390.625 506.03 392.197C507.613 393.777 508.397 395.643 508.397 397.785C508.397 399.934 507.613 401.8 506.03 403.372C504.451 404.952 502.592 405.736 500.442 405.736C498.301 405.736 496.438 404.952 494.859 403.372C493.275 401.8 492.491 399.934 492.491 397.785ZM500.442 420.892C502.718 420.892 504.615 420.529 506.126 419.802C507.644 419.08 508.875 418.055 509.824 416.727C510.772 415.4 511.434 413.821 511.813 411.989C512.191 410.161 512.375 408.141 512.375 405.931V389.638C512.375 387.558 512.157 385.6 511.713 383.772C511.273 381.94 510.577 380.36 509.629 379.033C508.684 377.706 507.449 376.65 505.938 375.866C504.424 375.071 502.592 374.677 500.442 374.677C498.301 374.677 496.465 375.071 494.947 375.866C493.436 376.65 492.204 377.706 491.26 379.033C490.311 380.36 489.615 381.94 489.175 383.772C488.728 385.6 488.514 387.558 488.514 389.638V405.931C488.514 408.141 488.697 410.161 489.084 411.989C489.462 413.821 490.124 415.4 491.072 416.727C492.013 418.055 493.245 419.08 494.763 419.802C496.274 420.529 498.171 420.892 500.442 420.892ZM476.012 390.4C476.012 381.817 478.172 375.147 482.502 370.416C486.827 365.686 492.805 363.311 500.442 363.311C508.084 363.311 514.062 365.686 518.395 370.416C522.716 375.147 524.877 381.817 524.877 390.4V405.177C524.877 414.012 522.716 420.735 518.395 425.344C514.062 429.953 508.084 432.259 500.442 432.259C492.805 432.259 486.827 429.953 482.502 425.344C478.172 420.735 476.012 414.012 476.012 405.177V390.4Z" fill="#B1309D"/>
<path d="M242.148 186.385L182.921 181.769C181.574 181.666 180.567 182.671 180.672 184.018L185.287 243.248C185.456 245.42 188.167 246.713 189.585 245.294L203.102 231.778C203.979 230.902 205.525 231.021 206.552 232.05L239.242 264.738C240.27 265.767 241.813 265.885 242.693 265.009L263.909 243.791C264.787 242.915 264.668 241.37 263.64 240.341L230.949 207.649C229.921 206.624 229.802 205.079 230.681 204.2L244.196 190.684C245.614 189.269 244.32 186.557 242.148 186.385" fill="#3872C2"/>
<path d="M354.929 357.594L333.67 336.337C332.98 335.645 332.048 335.243 331.084 335.228L309.149 334.888C308.431 334.876 308.086 335.74 308.602 336.253L330.138 357.793C330.851 358.504 331.809 358.902 332.798 358.898C337.14 358.871 349.446 358.814 354.375 358.959C355.098 358.982 355.449 358.114 354.929 357.594" fill="#F9A80D"/>
<path d="M356.549 355.972L335.29 334.716C334.597 334.02 334.199 333.09 334.184 332.13L333.844 310.193C333.832 309.478 334.694 309.13 335.209 309.646L356.747 331.182C357.458 331.893 357.859 332.853 357.853 333.844C357.826 338.181 357.771 350.492 357.914 355.418C357.936 356.14 357.068 356.492 356.549 355.972" fill="#F9A80D"/>
<path d="M359.637 359.058L380.896 380.318C381.588 381.011 382.52 381.408 383.483 381.424L405.418 381.764C406.135 381.776 406.48 380.911 405.964 380.399L384.428 358.859C383.716 358.148 382.759 357.75 381.769 357.758C377.429 357.781 365.12 357.838 360.193 357.693C359.47 357.673 359.119 358.542 359.637 359.058" fill="#F9A80D"/>
<path d="M358.018 360.68L379.278 381.936C379.97 382.632 380.367 383.562 380.382 384.526L380.724 406.459C380.736 407.178 379.873 407.522 379.357 407.006L357.82 385.47C357.109 384.759 356.709 383.803 356.715 382.808C356.74 378.471 356.797 366.16 356.654 361.234C356.631 360.511 357.501 360.163 358.018 360.68Z" fill="#F9A80D"/>
<path d="M361.203 352.896L380.284 333.816C380.907 333.193 381.262 332.359 381.276 331.494L381.582 311.802C381.594 311.16 380.819 310.85 380.357 311.313L361.025 330.645C360.387 331.284 360.029 332.141 360.034 333.032C360.056 336.925 360.107 347.974 359.978 352.395C359.959 353.046 360.738 353.363 361.203 352.896Z" fill="#F9A80D"/>
<path d="M362.656 354.351L381.736 335.27C382.358 334.647 383.193 334.291 384.058 334.28L403.747 333.974C404.391 333.962 404.7 334.735 404.236 335.197L384.908 354.53C384.269 355.169 383.408 355.529 382.519 355.521C378.623 355.498 367.575 355.448 363.153 355.578C362.506 355.597 362.189 354.817 362.656 354.351" fill="#F9A80D"/>
<path d="M351.795 362.301L332.716 381.382C332.093 382.005 331.256 382.361 330.393 382.372L310.704 382.678C310.06 382.69 309.75 381.913 310.213 381.451L329.545 362.122C330.184 361.483 331.043 361.127 331.932 361.131C335.826 361.154 346.874 361.204 351.296 361.074C351.946 361.055 352.263 361.835 351.795 362.301" fill="#F9A80D"/>
<path d="M353.254 363.754L334.172 382.835C333.55 383.458 333.193 384.292 333.18 385.156L332.875 404.845C332.864 405.491 333.639 405.801 334.102 405.338L353.433 386.005C354.071 385.367 354.43 384.506 354.424 383.619C354.4 379.722 354.349 368.676 354.481 364.255C354.499 363.605 353.719 363.292 353.254 363.754Z" fill="#F9A80D"/>
<path d="M296.941 304.349L265.125 272.529L263.998 273.657L274.898 292.825L267.01 300.712L266.256 299.958L253.102 276.285L269.257 260.13L305.207 296.08L316.104 285.184L323.994 293.074L292.43 324.638L284.542 316.748L296.941 304.349" fill="#3BBA6B"/>
<path d="M422.417 433.031C420.902 431.517 420.138 429.639 420.138 427.405C420.143 425.18 420.902 423.298 422.417 421.783C423.936 420.261 425.811 419.512 428.04 419.504C430.275 419.504 432.15 420.269 433.665 421.783C435.184 423.302 435.948 425.18 435.941 427.405C435.941 429.639 435.184 431.509 433.665 433.031C432.15 434.546 430.275 435.311 428.04 435.311C425.811 435.315 423.936 434.553 422.417 433.031ZM444.378 443.748C445.984 442.137 447.07 440.543 447.625 438.959C448.187 437.376 448.336 435.777 448.068 434.171C447.801 432.561 447.15 430.978 446.122 429.413C445.097 427.853 443.8 426.293 442.236 424.732L430.715 413.213C429.244 411.74 427.707 410.509 426.101 409.534C424.493 408.547 422.884 407.92 421.276 407.652C419.669 407.384 418.05 407.51 416.427 408.023C414.791 408.535 413.223 409.549 411.702 411.071C410.185 412.586 409.168 414.161 408.654 415.794C408.143 417.42 408.018 419.037 408.285 420.644C408.553 422.25 409.177 423.86 410.166 425.466C411.14 427.077 412.373 428.614 413.843 430.083L425.364 441.606C426.928 443.166 428.488 444.467 430.051 445.484C431.615 446.513 433.199 447.163 434.809 447.427C436.411 447.702 438.006 447.557 439.593 446.995C441.173 446.436 442.771 445.354 444.378 443.748V443.748ZM405.544 439.46C399.473 433.391 396.284 427.153 396.001 420.743C395.712 414.341 398.262 408.432 403.663 403.032C409.064 397.628 414.972 395.081 421.38 395.364C427.783 395.651 434.025 398.84 440.094 404.91L450.543 415.358C456.792 421.608 460.02 427.887 460.219 434.202C460.418 440.524 457.817 446.383 452.417 451.783C447.017 457.183 441.157 459.784 434.839 459.581C428.519 459.386 422.24 456.158 415.989 449.909L405.544 439.46" fill="#B1309D"/>
<path d="M95.9139 460.572L50.7698 499.185C49.7434 500.064 49.7434 501.487 50.7698 502.367L95.9139 540.983C97.5707 542.402 100.402 541.396 100.402 539.392V520.277C100.402 519.038 101.579 518.028 103.032 518.028H149.263C150.715 518.028 151.892 517.022 151.892 515.779V485.776C151.892 484.533 150.715 483.523 149.263 483.523H103.032C101.579 483.523 100.402 482.517 100.402 481.274V462.16C100.402 460.156 97.5707 459.154 95.9139 460.572" fill="#3872C2"/>
<path d="M296.724 501.884H266.66C265.682 501.884 264.742 502.259 264.051 502.932L248.298 518.199C247.783 518.7 248.149 519.553 248.878 519.553H279.335C280.342 519.553 281.301 519.159 281.997 518.452C285.049 515.365 293.713 506.623 297.298 503.242C297.824 502.745 297.458 501.884 296.724 501.884" fill="#F9A80D"/>
<path d="M296.724 499.594H266.66C265.682 499.594 264.742 499.215 264.051 498.546L248.298 483.278C247.783 482.777 248.149 481.921 248.878 481.921H279.335C280.342 481.921 281.301 482.318 281.997 483.022C285.049 486.109 293.713 494.851 297.298 498.232C297.824 498.729 297.458 499.594 296.724 499.594" fill="#F9A80D"/>
<path d="M301.088 499.594H331.152C332.131 499.594 333.07 499.215 333.764 498.546L349.515 483.278C350.03 482.777 349.664 481.921 348.936 481.921H318.478C317.472 481.921 316.512 482.318 315.815 483.022C312.763 486.109 304.103 494.851 300.516 498.232C299.988 498.729 300.354 499.594 301.088 499.594" fill="#F9A80D"/>
<path d="M301.088 501.884H331.152C332.131 501.884 333.07 502.259 333.764 502.932L349.515 518.199C350.03 518.7 349.664 519.553 348.936 519.553H318.478C317.472 519.553 316.512 519.159 315.815 518.452C312.763 515.365 304.103 506.623 300.516 503.242C299.988 502.745 300.354 501.884 301.088 501.884Z" fill="#F9A80D"/>
<path d="M297.837 494.124V467.142C297.837 466.262 297.5 465.421 296.896 464.798L283.193 450.658C282.742 450.199 281.977 450.525 281.977 451.179V478.516C281.977 479.423 282.331 480.283 282.963 480.906C285.735 483.645 293.584 491.42 296.618 494.64C297.062 495.111 297.837 494.786 297.837 494.124" fill="#F9A80D"/>
<path d="M299.891 494.124V467.142C299.891 466.262 300.23 465.421 300.832 464.798L314.538 450.658C314.986 450.199 315.752 450.525 315.752 451.179V478.516C315.752 479.423 315.398 480.283 314.766 480.906C311.995 483.645 304.147 491.42 301.112 494.64C300.666 495.111 299.891 494.786 299.891 494.124" fill="#F9A80D"/>
<path d="M297.837 507.426V534.411C297.837 535.291 297.5 536.132 296.896 536.752L283.193 550.891C282.742 551.354 281.977 551.025 281.977 550.371V523.033C281.977 522.131 282.331 521.27 282.963 520.647C285.735 517.905 293.584 510.13 296.618 506.913C297.062 506.439 297.837 506.768 297.837 507.426" fill="#F9A80D"/>
<path d="M299.891 507.426V534.411C299.891 535.291 300.23 536.132 300.832 536.752L314.538 550.891C314.986 551.354 315.752 551.025 315.752 550.371V523.033C315.752 522.131 315.398 521.27 314.766 520.647C311.995 517.905 304.147 510.13 301.112 506.913C300.666 506.439 299.891 506.768 299.891 507.426" fill="#F9A80D"/>
<path d="M218.071 505.234H173.076V506.829L194.338 512.673V523.833H193.27L167.23 516.394V493.546H218.071V478.134H229.228V522.769H218.071V505.234" fill="#3BBA6B"/>
<path d="M397.785 507.507C395.644 507.507 393.778 506.723 392.197 505.143C390.626 503.563 389.833 501.697 389.833 499.555C389.833 497.402 390.626 495.547 392.197 493.968C393.778 492.388 395.644 491.6 397.785 491.6C399.936 491.6 401.802 492.388 403.372 493.968C404.953 495.547 405.739 497.402 405.739 499.555C405.739 501.697 404.953 503.563 403.372 505.143C401.802 506.723 399.936 507.507 397.785 507.507ZM420.892 499.555C420.892 497.28 420.529 495.387 419.804 493.876C419.08 492.358 418.055 491.122 416.731 490.174C415.405 489.225 413.825 488.564 411.989 488.185C410.162 487.81 408.144 487.623 405.933 487.623H389.64C387.559 487.623 385.603 487.841 383.775 488.288C381.94 488.724 380.361 489.42 379.034 490.369C377.709 491.317 376.653 492.549 375.867 494.06C375.074 495.578 374.681 497.402 374.681 499.555C374.681 501.697 375.074 503.529 375.867 505.047C376.653 506.558 377.709 507.793 379.034 508.742C380.361 509.69 381.94 510.383 383.775 510.822C385.603 511.27 387.559 511.484 389.64 511.484H405.933C408.144 511.484 410.162 511.3 411.989 510.914C413.825 510.536 415.405 509.874 416.731 508.925C418.055 507.985 419.08 506.753 419.804 505.235C420.529 503.724 420.892 501.827 420.892 499.555ZM390.403 523.986C381.817 523.986 375.15 521.829 370.419 517.496C365.686 513.171 363.312 507.193 363.312 499.555C363.312 491.918 365.686 485.936 370.419 481.607C375.15 477.281 381.817 475.124 390.403 475.124H405.177C414.017 475.124 420.738 477.281 425.347 481.607C429.956 485.936 432.261 491.918 432.261 499.555C432.261 507.193 429.956 513.171 425.347 517.496C420.738 521.829 414.017 523.986 405.177 523.986H390.403Z" fill="#B1309D"/>
<path d="M186.39 757.85L181.774 817.076C181.669 818.422 182.676 819.432 184.024 819.325L243.25 814.71C245.423 814.541 246.716 811.829 245.3 810.411L231.784 796.895C230.904 796.015 231.025 794.475 232.053 793.45L264.741 760.757C265.769 759.728 265.89 758.183 265.011 757.303L243.795 736.089C242.918 735.21 241.373 735.327 240.345 736.357L207.655 769.049C206.627 770.074 205.082 770.196 204.205 769.316L190.688 755.8C189.272 754.386 186.557 755.678 186.39 757.85" fill="#3872C2"/>
<path d="M357.592 645.07L336.333 666.327C335.64 667.019 335.244 667.952 335.229 668.916L334.886 690.849C334.876 691.569 335.737 691.913 336.252 691.395L357.789 669.86C358.503 669.149 358.9 668.193 358.894 667.202C358.869 662.858 358.814 650.551 358.959 645.624C358.979 644.903 358.112 644.55 357.592 645.07" fill="#F9A80D"/>
<path d="M355.972 643.449L334.715 664.705C334.022 665.401 333.093 665.798 332.128 665.814L310.195 666.154C309.475 666.166 309.13 665.305 309.645 664.79L331.182 643.25C331.893 642.542 332.852 642.14 333.841 642.145C338.183 642.171 350.49 642.228 355.418 642.083C356.14 642.064 356.491 642.929 355.972 643.449" fill="#F9A80D"/>
<path d="M359.058 640.362L380.316 619.105C381.009 618.413 381.406 617.48 381.421 616.516L381.763 594.583C381.775 593.863 380.912 593.52 380.396 594.037L358.859 615.572C358.147 616.283 357.748 617.239 357.754 618.23C357.779 622.574 357.838 634.881 357.691 639.808C357.672 640.53 358.54 640.882 359.058 640.362" fill="#F9A80D"/>
<path d="M360.679 641.982L381.938 620.722C382.631 620.03 383.562 619.633 384.524 619.616L406.46 619.278C407.177 619.265 407.523 620.126 407.008 620.641L385.47 642.181C384.759 642.889 383.801 643.291 382.81 643.287C378.47 643.26 366.162 643.203 361.233 643.348C360.513 643.367 360.161 642.502 360.679 641.982Z" fill="#F9A80D"/>
<path d="M352.896 638.797L333.816 619.717C333.193 619.094 332.359 618.738 331.494 618.722L311.805 618.417C311.161 618.405 310.851 619.182 311.312 619.644L330.644 638.974C331.283 639.612 332.144 639.972 333.033 639.967C336.927 639.945 347.975 639.891 352.397 640.021C353.046 640.04 353.361 639.261 352.896 638.797" fill="#F9A80D"/>
<path d="M354.348 637.34L335.268 618.261C334.646 617.64 334.289 616.803 334.277 615.942L333.971 596.25C333.959 595.608 334.734 595.297 335.196 595.76L354.528 615.089C355.166 615.728 355.524 616.589 355.518 617.479C355.496 621.372 355.446 632.422 355.575 636.844C355.594 637.489 354.815 637.807 354.348 637.34" fill="#F9A80D"/>
<path d="M362.3 648.203L381.382 667.283C382.002 667.902 382.358 668.74 382.373 669.605L382.679 689.292C382.69 689.936 381.916 690.245 381.452 689.782L362.121 670.449C361.483 669.811 361.124 668.953 361.129 668.063C361.154 664.17 361.205 653.121 361.073 648.7C361.054 648.049 361.835 647.736 362.3 648.203" fill="#F9A80D"/>
<path d="M363.758 646.745L382.838 665.826C383.459 666.453 384.294 666.805 385.161 666.82L404.848 667.127C405.492 667.134 405.804 666.362 405.341 665.899L386.009 646.57C385.37 645.927 384.511 645.575 383.622 645.579C379.726 645.597 368.679 645.651 364.257 645.521C363.607 645.502 363.291 646.283 363.758 646.745Z" fill="#F9A80D"/>
<path d="M304.348 703.058L272.531 734.874L273.658 735.998L292.825 725.102L300.715 732.987L299.96 733.742L276.287 746.897L260.132 730.739L296.082 694.793L285.185 683.893L293.076 676.007L324.637 707.571L316.748 715.456L304.348 703.058" fill="#3BBA6B"/>
<path d="M433.033 577.586C431.519 579.101 429.643 579.861 427.409 579.861C425.181 579.858 423.3 579.101 421.785 577.586C420.266 576.064 419.513 574.19 419.507 571.96C419.507 569.726 420.269 567.853 421.785 566.334C423.306 564.816 425.181 564.055 427.409 564.059C429.643 564.059 431.514 564.816 433.033 566.334C434.548 567.853 435.313 569.726 435.313 571.96C435.317 574.19 434.552 576.064 433.033 577.586ZM443.746 555.622C442.14 554.016 440.541 552.929 438.961 552.375C437.378 551.813 435.779 551.667 434.173 551.935C432.563 552.199 430.979 552.849 429.415 553.878C427.857 554.903 426.297 556.199 424.734 557.764L413.213 569.283C411.742 570.756 410.511 572.293 409.535 573.899C408.547 575.509 407.921 577.116 407.656 578.726C407.388 580.332 407.514 581.95 408.025 583.575C408.539 585.208 409.55 586.78 411.071 588.299C412.587 589.813 414.162 590.834 415.798 591.347C417.42 591.859 419.04 591.982 420.647 591.717C422.254 591.445 423.862 590.822 425.468 589.832C427.077 588.856 428.614 587.63 430.084 586.157L441.604 574.637C443.168 573.073 444.469 571.513 445.486 569.949C446.515 568.385 447.165 566.801 447.433 565.191C447.704 563.592 447.555 561.994 446.997 560.406C446.438 558.827 445.356 557.228 443.746 555.622V555.622ZM439.466 594.456C433.393 600.525 427.153 603.715 420.744 603.998C414.341 604.289 408.434 601.737 403.033 596.338C397.633 590.933 395.081 585.029 395.365 578.618C395.655 572.217 398.843 565.979 404.914 559.905L415.36 549.461C421.61 543.208 427.888 539.983 434.204 539.781C440.526 539.586 446.385 542.183 451.785 547.583C457.185 552.987 459.786 558.842 459.583 565.16C459.388 571.482 456.16 577.758 449.911 584.007L439.466 594.456" fill="#B1309D"/>
<path d="M460.571 904.084L499.187 949.228C500.066 950.258 501.489 950.258 502.369 949.228L540.985 904.084C542.404 902.429 541.398 899.595 539.394 899.595H520.279C519.036 899.595 518.03 898.421 518.03 896.967V850.737C518.03 849.283 517.024 848.109 515.781 848.109H485.778C484.535 848.109 483.529 849.283 483.529 850.737V896.967C483.529 898.421 482.52 899.595 481.277 899.595H462.162C460.158 899.595 459.156 902.429 460.571 904.084" fill="#3872C2"/>
<path d="M501.881 703.276V733.34C501.881 734.319 502.26 735.26 502.933 735.948L518.2 751.705C518.698 752.217 519.554 751.855 519.554 751.124V720.665C519.554 719.66 519.16 718.7 518.453 718.003C515.366 714.951 506.624 706.294 503.243 702.702C502.746 702.175 501.881 702.541 501.881 703.276" fill="#F9A80D"/>
<path d="M499.588 703.276V733.34C499.588 734.319 499.214 735.26 498.541 735.948L483.273 751.705C482.776 752.217 481.919 751.855 481.919 751.124V720.665C481.919 719.66 482.317 718.7 483.021 718.003C486.107 714.951 494.85 706.294 498.231 702.702C498.728 702.175 499.588 702.541 499.588 703.276" fill="#F9A80D"/>
<path d="M499.588 698.912V668.847C499.588 667.868 499.214 666.931 498.541 666.235L483.273 650.485C482.776 649.97 481.919 650.336 481.919 651.064V681.522C481.919 682.528 482.317 683.487 483.021 684.183C486.107 687.235 494.85 695.899 498.231 699.481C498.728 700.01 499.588 699.642 499.588 698.912" fill="#F9A80D"/>
<path d="M501.881 698.912V668.847C501.881 667.868 502.26 666.931 502.933 666.235L518.2 650.485C518.698 649.97 519.554 650.336 519.554 651.064V681.522C519.554 682.528 519.16 683.487 518.453 684.183C515.366 687.235 506.624 695.899 503.243 699.481C502.746 700.01 501.881 699.642 501.881 698.912" fill="#F9A80D"/>
<path d="M494.129 702.157H467.144C466.264 702.157 465.423 702.498 464.799 703.103L450.66 716.81C450.197 717.256 450.526 718.021 451.18 718.021H478.522C479.42 718.021 480.285 717.666 480.908 717.035C483.646 714.263 491.422 706.418 494.642 703.382C495.112 702.939 494.787 702.157 494.129 702.157" fill="#F9A80D"/>
<path d="M494.129 700.105H467.144C466.264 700.105 465.423 699.765 464.799 699.164L450.66 685.457C450.197 685.009 450.526 684.244 451.18 684.244H478.522C479.42 684.244 480.285 684.6 480.908 685.232C483.646 688 491.422 695.848 494.642 698.885C495.112 699.328 494.787 700.105 494.129 700.105" fill="#F9A80D"/>
<path d="M507.425 702.157H534.411C535.291 702.157 536.132 702.498 536.755 703.103L550.891 716.81C551.354 717.256 551.028 718.021 550.371 718.021H523.033C522.131 718.021 521.27 717.666 520.643 717.035C517.904 714.263 510.129 706.418 506.909 703.382C506.439 702.939 506.767 702.157 507.425 702.157" fill="#F9A80D"/>
<path d="M507.425 700.105H534.411C535.291 700.105 536.132 699.765 536.755 699.164L550.891 685.457C551.354 685.009 551.028 684.244 550.371 684.244H523.033C522.131 684.244 521.27 684.6 520.643 685.232C517.904 688 510.129 695.848 506.909 698.885C506.439 699.328 506.767 700.105 507.425 700.105" fill="#F9A80D"/>
<path d="M505.235 781.93V826.925H506.829L512.673 805.664H523.829V806.728L516.391 832.769H493.547V781.93H478.134V770.773H522.77V781.93H505.235" fill="#3BBA6B"/>
<path d="M507.505 602.215C507.505 604.353 506.721 606.221 505.141 607.804C503.558 609.376 501.695 610.167 499.553 610.167C497.404 610.167 495.545 609.376 493.966 607.804C492.386 606.221 491.598 604.353 491.598 602.215C491.598 600.063 492.386 598.199 493.966 596.628C495.545 595.049 497.404 594.262 499.553 594.262C501.695 594.262 503.558 595.049 505.141 596.628C506.721 598.199 507.505 600.063 507.505 602.215ZM499.553 579.108C497.278 579.108 495.385 579.467 493.874 580.194C492.356 580.918 491.12 581.943 490.172 583.269C489.223 584.593 488.562 586.172 488.183 588.012C487.808 589.836 487.621 591.855 487.621 594.066V610.362C487.621 612.438 487.839 614.397 488.286 616.225C488.726 618.057 489.418 619.636 490.367 620.964C491.312 622.291 492.547 623.345 494.058 624.13C495.576 624.926 497.404 625.319 499.553 625.319C501.695 625.319 503.531 624.926 505.049 624.13C506.56 623.345 507.791 622.291 508.74 620.964C509.684 619.636 510.381 618.057 510.82 616.225C511.268 614.397 511.482 612.438 511.482 610.362V594.066C511.482 591.855 511.298 589.836 510.912 588.012C510.534 586.172 509.872 584.593 508.923 583.269C507.983 581.943 506.751 580.918 505.233 580.194C503.722 579.467 501.825 579.108 499.553 579.108ZM523.984 609.594C523.984 618.18 521.823 624.849 517.494 629.58C513.172 634.311 507.191 636.687 499.553 636.687C491.916 636.687 485.934 634.311 481.601 629.58C477.279 624.849 475.122 618.18 475.122 609.594V594.823C475.122 585.985 477.279 579.261 481.601 574.652C485.934 570.045 491.916 567.738 499.553 567.738C507.191 567.738 513.172 570.045 517.494 574.652C521.823 579.261 523.984 585.985 523.984 594.823V609.594Z" fill="#B1309D"/>
<path d="M757.85 813.612L817.076 818.228C818.423 818.331 819.432 817.326 819.325 815.975L814.709 756.752C814.541 754.58 811.829 753.288 810.41 754.703L796.894 768.218C796.019 769.094 794.473 768.976 793.445 767.951L760.753 735.259C759.728 734.23 758.183 734.112 757.307 734.987L736.089 756.206C735.209 757.086 735.327 758.63 736.356 759.655L769.048 792.347C770.073 793.372 770.195 794.918 769.316 795.797L755.8 809.312C754.381 810.729 755.678 813.443 757.85 813.612" fill="#3872C2"/>
<path d="M645.07 642.404L666.327 663.665C667.019 664.356 667.952 664.751 668.916 664.77L690.85 665.111C691.569 665.121 691.913 664.258 691.396 663.745L669.861 642.209C669.149 641.495 668.189 641.096 667.203 641.103C662.862 641.127 650.551 641.184 645.625 641.039C644.902 641.017 644.55 641.887 645.07 642.404" fill="#F9A80D"/>
<path d="M643.451 644.026L664.711 665.286C665.403 665.979 665.801 666.908 665.816 667.872L666.157 689.806C666.168 690.52 665.304 690.868 664.791 690.356L643.252 668.816C642.54 668.105 642.143 667.144 642.147 666.154C642.173 661.817 642.231 649.51 642.085 644.581C642.062 643.858 642.934 643.51 643.451 644.026" fill="#F9A80D"/>
<path d="M640.36 640.938L619.1 619.678C618.411 618.986 617.478 618.589 616.514 618.574L594.581 618.233C593.862 618.221 593.518 619.086 594.034 619.601L615.57 641.134C616.281 641.849 617.241 642.246 618.228 642.239C622.573 642.215 634.876 642.159 639.806 642.303C640.529 642.327 640.88 641.455 640.36 640.938Z" fill="#F9A80D"/>
<path d="M641.987 639.318L620.726 618.058C620.034 617.369 619.64 616.435 619.621 615.472L619.281 593.539C619.269 592.823 620.13 592.475 620.646 592.992L642.186 614.527C642.897 615.238 643.295 616.199 643.291 617.19C643.264 621.527 643.207 633.834 643.352 638.764C643.375 639.487 642.507 639.838 641.987 639.318Z" fill="#F9A80D"/>
<path d="M638.798 647.101L619.718 666.18C619.094 666.805 618.739 667.639 618.723 668.506L618.417 688.191C618.406 688.838 619.182 689.147 619.645 688.684L638.974 669.352C639.613 668.713 639.972 667.857 639.968 666.965C639.945 663.072 639.892 652.022 640.022 647.602C640.041 646.952 639.261 646.638 638.798 647.101" fill="#F9A80D"/>
<path d="M637.341 645.648L618.26 664.729C617.641 665.347 616.803 665.707 615.939 665.719L596.25 666.028C595.608 666.036 595.298 665.263 595.761 664.8L615.09 645.467C615.732 644.829 616.589 644.469 617.48 644.476C621.373 644.501 632.422 644.554 636.843 644.424C637.49 644.405 637.807 645.18 637.341 645.648" fill="#F9A80D"/>
<path d="M648.204 637.697L667.284 618.617C667.904 617.997 668.741 617.641 669.606 617.626L689.294 617.32C689.937 617.308 690.247 618.08 689.784 618.544L670.455 637.877C669.816 638.515 668.955 638.875 668.068 638.87C664.171 638.848 653.122 638.794 648.701 638.924C648.055 638.943 647.737 638.164 648.204 637.697Z" fill="#F9A80D"/>
<path d="M646.745 636.243L665.829 617.163C666.449 616.543 666.804 615.706 666.82 614.837L667.126 595.153C667.137 594.51 666.361 594.196 665.898 594.66L646.569 613.992C645.93 614.63 645.571 615.488 645.574 616.379C645.601 620.276 645.651 631.321 645.521 635.742C645.502 636.393 646.282 636.71 646.745 636.243" fill="#F9A80D"/>
<path d="M703.055 695.648L734.871 727.468L735.996 726.34L725.096 707.171L732.986 699.286L733.739 700.039L746.892 723.709L730.737 739.868L694.787 703.913L683.891 714.813L676.001 706.923L707.564 675.364L715.454 683.25L703.055 695.648Z" fill="#3BBA6B"/>
<path d="M577.584 566.966C579.102 568.481 579.863 570.359 579.863 572.593C579.859 574.822 579.102 576.7 577.584 578.215C576.065 579.737 574.191 580.485 571.962 580.494C569.728 580.494 567.85 579.729 566.336 578.215C564.818 576.697 564.053 574.822 564.06 572.593C564.06 570.359 564.818 568.489 566.336 566.966C567.85 565.452 569.728 564.691 571.962 564.691C574.191 564.683 576.065 565.444 577.584 566.966ZM555.623 556.254C554.017 557.86 552.931 559.455 552.376 561.038C551.814 562.626 551.669 564.22 551.933 565.827C552.201 567.437 552.851 569.021 553.879 570.585C554.904 572.145 556.201 573.706 557.765 575.266L569.285 586.785C570.757 588.257 572.294 589.489 573.905 590.463C575.507 591.451 577.117 592.078 578.723 592.346C580.334 592.613 581.951 592.488 583.573 591.975C585.21 591.463 586.778 590.448 588.3 588.931C589.815 587.416 590.836 585.836 591.348 584.204C591.857 582.578 591.983 580.963 591.715 579.354C591.448 577.747 590.824 576.138 589.837 574.532C588.862 572.922 587.631 571.387 586.158 569.915L574.639 558.396C573.075 556.831 571.514 555.535 569.95 554.514C568.386 553.485 566.802 552.839 565.192 552.571C563.59 552.296 561.995 552.441 560.408 553.003C558.828 553.561 557.234 554.644 555.623 556.254V556.254ZM594.457 560.537C600.527 566.607 603.717 572.845 604 579.254C604.29 585.66 601.739 591.566 596.339 596.97C590.939 602.37 585.03 604.92 578.62 604.634C572.218 604.344 565.976 601.157 559.907 595.084L549.458 584.64C543.209 578.391 539.981 572.11 539.782 565.796C539.583 559.474 542.184 553.615 547.584 548.215C552.985 542.815 558.844 540.214 565.162 540.417C571.484 540.612 577.76 543.84 584.013 550.089L594.457 560.537Z" fill="#B1309D"/>
<path d="M904.082 539.429L949.226 500.813C950.251 499.934 950.251 498.511 949.226 497.631L904.082 459.015C902.426 457.6 899.596 458.602 899.596 460.606V479.721C899.596 480.964 898.418 481.97 896.964 481.97H850.734C849.281 481.97 848.103 482.976 848.103 484.219V514.222C848.103 515.469 849.281 516.475 850.734 516.475H896.964C898.418 516.475 899.596 517.48 899.596 518.723V537.838C899.596 539.842 902.426 540.844 904.082 539.429Z" fill="#3872C2"/>
<path d="M703.273 498.113H733.338C734.317 498.113 735.254 497.738 735.95 497.065L751.699 481.797C752.215 481.296 751.848 480.444 751.122 480.444H720.663C719.657 480.444 718.697 480.837 718.001 481.545C714.949 484.631 706.287 493.374 702.699 496.755C702.175 497.252 702.539 498.113 703.273 498.113" fill="#F9A80D"/>
<path d="M703.273 500.408H733.338C734.317 500.408 735.254 500.783 735.95 501.452L751.699 516.724C752.215 517.221 751.848 518.077 751.122 518.077H720.663C719.657 518.077 718.697 517.683 718.001 516.98C714.949 513.89 706.287 505.147 702.699 501.766C702.175 501.269 702.539 500.408 703.273 500.408" fill="#F9A80D"/>
<path d="M698.912 500.408H668.847C667.868 500.408 666.927 500.783 666.235 501.452L650.482 516.724C649.969 517.221 650.333 518.077 651.063 518.077H681.522C682.527 518.077 683.487 517.683 684.183 516.98C687.235 513.89 695.898 505.147 699.481 501.766C700.009 501.269 699.642 500.408 698.912 500.408" fill="#F9A80D"/>
<path d="M698.912 498.113H668.847C667.868 498.113 666.927 497.738 666.235 497.065L650.482 481.797C649.969 481.296 650.333 480.444 651.063 480.444H681.522C682.527 480.444 683.487 480.837 684.183 481.545C687.235 484.631 695.898 493.374 699.481 496.755C700.009 497.252 699.642 498.113 698.912 498.113Z" fill="#F9A80D"/>
<path d="M702.161 505.873V532.855C702.161 533.735 702.497 534.58 703.102 535.199L716.805 549.339C717.252 549.801 718.021 549.472 718.021 548.818V521.481C718.021 520.574 717.665 519.714 717.034 519.091C714.261 516.352 706.414 508.577 703.377 505.357C702.933 504.886 702.161 505.211 702.161 505.873" fill="#F9A80D"/>
<path d="M700.103 505.873V532.855C700.103 533.735 699.766 534.58 699.162 535.199L685.459 549.339C685.007 549.801 684.242 549.472 684.242 548.818V521.481C684.242 520.574 684.598 519.714 685.229 519.091C687.998 516.352 695.85 508.577 698.883 505.357C699.326 504.886 700.103 505.211 700.103 505.873" fill="#F9A80D"/>
<path d="M702.161 492.571V465.589C702.161 464.709 702.497 463.864 703.102 463.244L716.805 449.105C717.252 448.642 718.021 448.971 718.021 449.625V476.963C718.021 477.866 717.665 478.73 717.034 479.353C714.261 482.092 706.414 489.867 703.377 493.083C702.933 493.557 702.161 493.229 702.161 492.571Z" fill="#F9A80D"/>
<path d="M700.103 492.571V465.589C700.103 464.709 699.766 463.864 699.162 463.244L685.459 449.105C685.007 448.642 684.242 448.971 684.242 449.625V476.963C684.242 477.866 684.598 478.73 685.229 479.353C687.998 482.092 695.85 489.867 698.883 493.083C699.326 493.557 700.103 493.229 700.103 492.571" fill="#F9A80D"/>
<path d="M781.932 494.763H826.927V493.168L805.667 487.324V476.168H806.73L832.771 483.603V506.454H781.932V521.863H770.776V477.227H781.932V494.763" fill="#3BBA6B"/>
<path d="M602.213 492.491C604.355 492.491 606.221 493.275 607.801 494.854C609.373 496.434 610.168 498.3 610.168 500.442C610.168 502.595 609.373 504.45 607.801 506.029C606.221 507.609 604.355 508.397 602.213 508.397C600.064 508.397 598.201 507.609 596.626 506.029C595.046 504.45 594.262 502.595 594.262 500.442C594.262 498.3 595.046 496.434 596.626 494.854C598.201 493.275 600.064 492.491 602.213 492.491ZM579.109 500.442C579.109 502.717 579.473 504.614 580.195 506.125C580.918 507.643 581.947 508.875 583.27 509.823C584.594 510.772 586.177 511.433 588.009 511.812C589.837 512.191 591.856 512.374 594.067 512.374H610.359C612.44 512.374 614.398 512.156 616.226 511.713C618.058 511.273 619.638 510.577 620.965 509.632C622.292 508.684 623.347 507.448 624.131 505.938C624.927 504.419 625.321 502.595 625.321 500.442C625.321 498.3 624.927 496.468 624.131 494.95C623.347 493.439 622.292 492.204 620.965 491.255C619.638 490.307 618.058 489.615 616.226 489.175C614.398 488.727 612.44 488.513 610.359 488.513H594.067C591.856 488.513 589.837 488.697 588.009 489.083C586.177 489.462 584.594 490.123 583.27 491.072C581.947 492.013 580.918 493.244 580.195 494.762C579.473 496.273 579.109 498.17 579.109 500.442V500.442ZM609.598 476.015C618.184 476.015 624.85 478.172 629.581 482.501C634.312 486.827 636.687 492.804 636.687 500.442C636.687 508.079 634.312 514.061 629.581 518.394C624.85 522.716 618.184 524.873 609.598 524.873H594.824C585.982 524.873 579.262 522.716 574.654 518.394C570.045 514.061 567.743 508.079 567.743 500.442C567.743 492.804 570.045 486.827 574.654 482.501C579.262 478.172 585.982 476.015 594.824 476.015H609.598Z" fill="#B1309D"/>
<path d="M813.613 242.146L818.229 182.92C818.332 181.573 817.326 180.567 815.976 180.671L756.754 185.287C754.578 185.455 753.285 188.171 754.704 189.582L768.22 203.101C769.099 203.977 768.977 205.522 767.952 206.551L735.26 239.243C734.231 240.268 734.113 241.813 734.993 242.693L756.207 263.907C757.083 264.787 758.632 264.665 759.657 263.64L792.349 230.948C793.374 229.923 794.919 229.8 795.798 230.68L809.314 244.196C810.729 245.611 813.445 244.322 813.613 242.146" fill="#3872C2"/>
<path d="M642.403 354.928L663.663 333.671C664.356 332.979 664.753 332.046 664.769 331.082L665.109 309.149C665.12 308.43 664.256 308.085 663.744 308.602L642.204 330.137C641.493 330.849 641.095 331.809 641.099 332.799C641.126 337.14 641.183 349.447 641.038 354.373C641.015 355.096 641.883 355.448 642.403 354.928Z" fill="#F9A80D"/>
<path d="M644.027 356.55L665.287 335.289C665.976 334.601 666.909 334.199 667.873 334.184L689.806 333.843C690.525 333.832 690.869 334.696 690.353 335.213L668.817 356.748C668.106 357.46 667.146 357.861 666.159 357.854C661.815 357.827 649.511 357.77 644.581 357.915C643.859 357.938 643.507 357.07 644.027 356.55Z" fill="#F9A80D"/>
<path d="M640.938 359.636L619.678 380.892C618.986 381.588 618.588 382.518 618.573 383.481L618.232 405.415C618.221 406.134 619.081 406.482 619.598 405.966L641.137 384.426C641.848 383.715 642.246 382.759 642.242 381.764C642.216 377.427 642.158 365.116 642.304 360.19C642.327 359.467 641.458 359.119 640.938 359.636Z" fill="#F9A80D"/>
<path d="M639.317 358.017L618.057 379.274C617.369 379.966 616.435 380.364 615.472 380.379L593.538 380.72C592.819 380.731 592.475 379.867 592.991 379.354L614.527 357.815C615.238 357.103 616.198 356.706 617.185 356.709C621.53 356.736 633.833 356.794 638.763 356.648C639.486 356.629 639.837 357.497 639.317 358.017Z" fill="#F9A80D"/>
<path d="M647.101 361.201L666.181 380.285C666.805 380.904 667.638 381.26 668.506 381.275L688.191 381.581C688.838 381.593 689.147 380.817 688.685 380.354L669.356 361.025C668.717 360.386 667.856 360.027 666.965 360.03C663.068 360.053 652.023 360.107 647.602 359.977C646.952 359.958 646.638 360.738 647.101 361.201Z" fill="#F9A80D"/>
<path d="M645.647 362.657L664.728 381.737C665.351 382.357 665.707 383.191 665.718 384.059L666.028 403.747C666.036 404.39 665.263 404.704 664.801 404.241L645.468 384.908C644.829 384.269 644.473 383.409 644.477 382.521C644.5 378.624 644.554 367.579 644.42 363.154C644.404 362.504 645.181 362.19 645.647 362.657Z" fill="#F9A80D"/>
<path d="M637.699 351.795L618.618 332.715C617.999 332.095 617.643 331.261 617.628 330.393L617.322 310.705C617.31 310.062 618.083 309.752 618.546 310.211L637.879 329.544C638.517 330.183 638.877 331.043 638.869 331.934C638.846 335.828 638.796 346.873 638.926 351.298C638.946 351.948 638.165 352.262 637.699 351.795" fill="#F9A80D"/>
<path d="M636.242 353.253L617.162 334.172C616.539 333.549 615.705 333.193 614.841 333.182L595.152 332.872C594.51 332.861 594.196 333.637 594.659 334.1L613.992 353.429C614.63 354.068 615.491 354.427 616.378 354.419C620.275 354.4 631.32 354.347 635.745 354.477C636.392 354.496 636.709 353.716 636.242 353.253Z" fill="#F9A80D"/>
<path d="M695.649 296.94L727.469 265.124L726.341 263.996L707.172 274.899L699.286 267.009L700.039 266.256L723.709 253.1L739.868 269.258L703.918 305.208L714.814 316.104L706.924 323.994L675.36 292.431L683.25 284.541L695.649 296.94" fill="#3BBA6B"/>
<path d="M566.968 422.415C568.482 420.897 570.356 420.136 572.594 420.136C574.819 420.14 576.701 420.897 578.216 422.415C579.738 423.934 580.487 425.808 580.495 428.037C580.495 430.271 579.73 432.145 578.216 433.663C576.693 435.182 574.819 435.946 572.594 435.939C570.356 435.939 568.486 435.182 566.968 433.663C565.453 432.145 564.688 430.271 564.688 428.037C564.684 425.808 565.449 423.934 566.968 422.415ZM556.255 444.376C557.862 445.986 559.46 447.068 561.04 447.623C562.623 448.185 564.222 448.33 565.828 448.063C567.438 447.799 569.021 447.148 570.586 446.12C572.146 445.095 573.703 443.798 575.267 442.234L586.79 430.715C588.259 429.242 589.49 427.705 590.469 426.098C591.452 424.492 592.079 422.882 592.347 421.276C592.615 419.666 592.489 418.048 591.976 416.426C591.464 414.789 590.45 413.221 588.932 411.699C587.413 410.185 585.842 409.163 584.205 408.655C582.583 408.142 580.962 408.016 579.355 408.284C577.745 408.552 576.139 409.179 574.533 410.162C572.926 411.137 571.389 412.368 569.916 413.841L558.397 425.36C556.833 426.928 555.536 428.485 554.515 430.049C553.486 431.613 552.836 433.197 552.568 434.807C552.297 436.409 552.446 438.004 553.008 439.591C553.563 441.171 554.645 442.769 556.255 444.376V444.376ZM560.539 405.542C566.608 399.468 572.85 396.283 579.256 396C585.662 395.713 591.567 398.26 596.967 403.66C602.367 409.064 604.918 414.969 604.635 421.379C604.345 427.781 601.159 434.023 595.089 440.092L584.641 450.537C578.392 456.79 572.112 460.014 565.797 460.217C559.475 460.412 553.616 457.815 548.216 452.415C542.816 447.015 540.215 441.155 540.418 434.837C540.613 428.519 543.841 422.239 550.09 415.99L560.539 405.542Z" fill="#B1309D"/>
</svg>